<svg width="40" height="40" viewBox="0 0 40 40" fill="none" xmlns="http://www.w3.org/2000/svg">
<g id="customer-support">
<g id="elements">
<path id="Rectangle 2100 (Stroke)" fill-rule="evenodd" clip-rule="evenodd" d="M32.08 16.3555C31.9425 16.2783 31.7699 16.2384 31.5907 16.2529C31.4913 16.261 31.3538 16.3037 30.5151 16.6857C30.1489 16.8525 29.9432 16.9485 29.7847 17.0634C29.6637 17.1511 29.6248 17.2125 29.5999 17.2854C29.5979 17.2944 29.5917 17.3271 29.587 17.4041C29.5791 17.533 29.5785 17.7045 29.5785 18.0074V25.3259C29.5785 25.6288 29.5791 25.8003 29.587 25.9292C29.5917 26.0062 29.5979 26.0389 29.5999 26.0479C29.6248 26.1208 29.6637 26.1822 29.7847 26.2699C29.9432 26.3848 30.1489 26.4808 30.5151 26.6476C31.3538 27.0296 31.4913 27.0724 31.5907 27.0804C31.7699 27.0949 31.9425 27.055 32.08 26.9778C32.1433 26.9423 32.2283 26.8713 32.7965 26.1811C33.0254 25.9031 33.2388 25.657 33.4447 25.4196C33.7516 25.0657 34.0418 24.7311 34.342 24.3383C34.8088 23.7273 35.1342 23.1721 35.2819 22.6313C35.4552 21.9972 35.4552 21.3361 35.2819 20.702C35.1915 20.371 35.0115 20.0043 34.6245 19.4549C34.2288 18.8932 33.6747 18.2189 32.8766 17.2495C32.7624 17.1108 32.6876 17.0143 32.6222 16.93C32.5438 16.8289 32.479 16.7454 32.3762 16.6276C32.2312 16.4615 32.1387 16.3884 32.08 16.3555ZM29.6006 26.0506C29.6006 26.0506 29.6004 26.0499 29.6 26.0481L29.6006 26.0506ZM29.6006 17.2827C29.6007 17.2828 29.6005 17.2837 29.6 17.2852L29.6006 17.2827ZM31.3891 13.7611C32.0514 13.7075 32.7219 13.8489 33.3037 14.1754C33.7218 14.4101 34.034 14.7251 34.2595 14.9835C34.3841 15.1262 34.5526 15.3398 34.6751 15.4952C34.7317 15.567 34.7785 15.6263 34.8066 15.6605L33.8416 16.455L34.8066 15.6605L34.8375 15.6979C35.5975 16.621 36.2121 17.3676 36.6683 18.0152C37.1394 18.684 37.4963 19.3212 37.6936 20.0432C37.9846 21.1086 37.9846 22.2247 37.6936 23.2901C37.4217 24.2852 36.8745 25.1416 36.3284 25.8562C35.9978 26.2888 35.5969 26.7534 35.2438 27.1626C35.0507 27.3864 34.8718 27.5937 34.7265 27.7702L33.7615 26.9756L34.7265 27.7702C34.6944 27.8092 34.6624 27.8482 34.6304 27.8872C34.2286 28.3774 33.832 28.8614 33.3037 29.1579C32.7219 29.4844 32.0514 29.6258 31.3891 29.5723C30.793 29.524 30.2238 29.2636 29.6189 28.9868C29.5725 28.9655 29.5258 28.9441 29.4789 28.9227C29.4451 28.9074 29.4087 28.8911 29.3702 28.8739C28.7766 28.6087 27.6573 28.1086 27.231 26.8468C27.076 26.3879 27.0772 25.8973 27.0783 25.4408C27.0784 25.4022 27.0785 25.3639 27.0785 25.3259V18.0074C27.0785 17.9694 27.0784 17.9311 27.0783 17.8926C27.0772 17.436 27.076 16.9454 27.231 16.4865C27.6573 15.2247 28.7766 14.7246 29.3702 14.4594C29.4087 14.4422 29.4451 14.426 29.4789 14.4106C29.5258 14.3892 29.5725 14.3678 29.6189 14.3466C30.2238 14.0698 30.793 13.8093 31.3891 13.7611Z" fill="url(#paint0_linear_1_959)"/>
<path id="Rectangle 2102 (Stroke)" fill-rule="evenodd" clip-rule="evenodd" d="M7.89902 16.4064C8.06345 16.2834 8.19526 16.2365 8.40184 16.2533C8.50118 16.2613 8.63867 16.304 9.47739 16.686C10.1167 16.9772 10.1938 17.0261 10.2369 17.0636C10.3115 17.1285 10.3421 17.1821 10.367 17.283C10.4037 17.4317 10.414 17.6294 10.414 18.0077V25.3262C10.414 25.7046 10.4037 25.9022 10.367 26.051C10.3421 26.1518 10.3115 26.2055 10.2369 26.2704C10.1938 26.3079 10.1167 26.3568 9.47739 26.648C8.63867 27.03 8.50118 27.0727 8.40184 27.0807C8.19981 27.0971 8.07397 27.0527 7.92492 26.9466C7.72364 26.8035 7.52102 26.5762 7.19604 26.1815C6.9671 25.9034 6.75372 25.6574 6.54785 25.42C6.24092 25.0661 5.9507 24.7314 5.65052 24.3386C5.18367 23.7276 4.85834 23.1725 4.7106 22.6317C4.53737 21.9976 4.53737 21.3364 4.7106 20.7023C4.80101 20.3714 4.98104 20.0046 5.36801 19.4553C5.7637 18.8935 6.31784 18.2192 7.1159 17.2499C7.46733 16.823 7.67633 16.573 7.89902 16.4064ZM5.18587 15.6608L6.15088 16.4553L5.18587 15.6608L5.15505 15.6983C4.39503 16.6214 3.78041 17.3679 3.32418 18.0156C2.85309 18.6843 2.49621 19.3215 2.29897 20.0435C2.00791 21.1089 2.00791 22.2251 2.29897 23.2905C2.57079 24.2855 3.11801 25.1419 3.6641 25.8565C3.9947 26.2892 4.39557 26.7537 4.7487 27.1629C4.94186 27.3867 5.12073 27.594 5.26601 27.7705L6.23103 26.976L5.26601 27.7705C5.28129 27.789 5.29687 27.808 5.31276 27.8274C5.88594 28.5254 6.86158 29.7135 8.60338 29.5726C9.19955 29.5244 9.76873 29.2639 10.3736 28.9871C10.42 28.9658 10.4667 28.9445 10.5137 28.9231C10.55 28.9065 10.5864 28.89 10.6227 28.8736C11.0771 28.6675 11.5223 28.4657 11.8775 28.1568C12.9156 27.254 12.9146 26.0623 12.914 25.3733C12.914 25.3573 12.914 25.3416 12.914 25.3262V18.0077C12.914 17.9923 12.914 17.9767 12.914 17.9607C12.9146 17.2716 12.9156 16.08 11.8775 15.1772C11.5223 14.8683 11.0771 14.6665 10.6226 14.4604C10.5864 14.4439 10.55 14.4275 10.5137 14.4109C10.4667 14.3895 10.4201 14.3682 10.3736 14.3469C9.76874 14.0701 9.19955 13.8096 8.60338 13.7614C6.84514 13.6192 5.85153 14.8421 5.28382 15.5408C5.24965 15.5828 5.21703 15.623 5.18587 15.6608Z" fill="url(#paint1_linear_1_959)"/>
<path id="Vector 4310 (Stroke)" fill-rule="evenodd" clip-rule="evenodd" d="M19.9948 6.25C14.0541 6.25 9.57812 10.3413 9.57812 15V16.25H7.07812V15C7.07812 8.61296 13.0488 3.75 19.9948 3.75C26.9408 3.75 32.9115 8.61296 32.9115 15V16.25H30.4115V15C30.4115 10.3413 25.9355 6.25 19.9948 6.25Z" fill="url(#paint2_linear_1_959)"/>
<path id="Vector 6251 (Stroke)" fill-rule="evenodd" clip-rule="evenodd" d="M31.6641 27.0859C32.3544 27.0859 32.9141 27.6456 32.9141 28.3359V29.6693C32.9141 33.551 29.0949 36.2526 24.9974 36.2526H21.6641C20.9737 36.2526 20.4141 35.693 20.4141 35.0026C20.4141 34.3122 20.9737 33.7526 21.6641 33.7526H24.9974C28.2636 33.7526 30.4141 31.6786 30.4141 29.6693V28.3359C30.4141 27.6456 30.9737 27.0859 31.6641 27.0859Z" fill="url(#paint3_linear_1_959)"/>
</g>
</g>
<defs>
<linearGradient id="paint0_linear_1_959" x1="32.495" y1="13.75" x2="32.495" y2="29.5833" gradientUnits="userSpaceOnUse">
<stop stop-color="#C1842D"/>
<stop offset="1" stop-color="#ECC974"/>
</linearGradient>
<linearGradient id="paint1_linear_1_959" x1="7.49737" y1="13.75" x2="7.49737" y2="29.5841" gradientUnits="userSpaceOnUse">
<stop stop-color="#C1842D"/>
<stop offset="1" stop-color="#ECC974"/>
</linearGradient>
<linearGradient id="paint2_linear_1_959" x1="19.9948" y1="3.75" x2="19.9948" y2="16.25" gradientUnits="userSpaceOnUse">
<stop stop-color="#C1842D"/>
<stop offset="1" stop-color="#ECC974"/>
</linearGradient>
<linearGradient id="paint3_linear_1_959" x1="26.6641" y1="27.0859" x2="26.6641" y2="36.2526" gradientUnits="userSpaceOnUse">
<stop stop-color="#C1842D"/>
<stop offset="1" stop-color="#ECC974"/>
</linearGradient>
</defs>
</svg>
