<svg width="38" height="38" viewBox="0 0 38 38" fill="none" xmlns="http://www.w3.org/2000/svg">
<g id="discount ">
<g id="elements">
<path id="Vector (Stroke)" fill-rule="evenodd" clip-rule="evenodd" d="M19.2587 35.404C19.0801 35.4174 18.9008 35.4174 18.7222 35.404C17.9528 35.3464 17.3293 34.9992 16.7596 34.5535C16.2238 34.1342 15.631 33.5414 14.9377 32.8481L14.8892 32.7995C14.1913 32.1017 14.0334 31.9673 13.8651 31.8901C13.8357 31.8766 13.8058 31.8642 13.7755 31.853C13.6019 31.7886 13.3952 31.7719 12.4083 31.7719L12.1654 31.7719C11.0788 31.772 10.1501 31.772 9.40793 31.6723C8.61548 31.5657 7.86648 31.3269 7.26026 30.7206C6.65404 30.1144 6.4152 29.3654 6.30865 28.573C6.20887 27.8308 6.20892 26.9021 6.20898 25.8155V25.5726C6.20898 24.5857 6.19234 24.379 6.12793 24.2054C6.11667 24.1751 6.10428 24.1452 6.09079 24.1158C6.01359 23.9475 5.87921 23.7896 5.18138 23.0917L5.1328 23.0432C4.43947 22.3499 3.84665 21.7571 3.42743 21.2213C2.9817 20.6516 2.63454 20.0281 2.57688 19.2587C2.5635 19.0801 2.5635 18.9008 2.57688 18.7222C2.63454 17.9528 2.98171 17.3293 3.42743 16.7596C3.84665 16.2238 4.43947 15.631 5.1328 14.9377L5.18138 14.8892C5.87921 14.1913 6.01359 14.0334 6.09079 13.8651C6.10428 13.8357 6.11667 13.8058 6.12793 13.7755C6.19234 13.6019 6.20898 13.3952 6.20898 12.4083V12.1654C6.20892 11.0788 6.20887 10.1501 6.30865 9.40793C6.4152 8.61548 6.65404 7.86648 7.26026 7.26026C7.86648 6.65404 8.61548 6.4152 9.40793 6.30865C10.1501 6.20887 11.0788 6.20892 12.1654 6.20898H12.4083C13.3952 6.20898 13.6019 6.19234 13.7755 6.12793C13.8058 6.11667 13.8357 6.10428 13.8651 6.09079C14.0334 6.01359 14.1913 5.87921 14.8892 5.18138L14.9377 5.1328C15.631 4.43947 16.2238 3.84665 16.7596 3.42743C17.3293 2.9817 17.9528 2.63454 18.7222 2.57688C18.9008 2.5635 19.0801 2.5635 19.2587 2.57688C20.0281 2.63454 20.6516 2.98171 21.2213 3.42743C21.7571 3.84665 22.3499 4.43947 23.0432 5.1328L23.0917 5.18138C23.7896 5.87921 23.9475 6.01359 24.1158 6.09079C24.1452 6.10428 24.1751 6.11667 24.2054 6.12793C24.379 6.19234 24.5857 6.20898 25.5726 6.20898H25.8155C26.9021 6.20892 27.8308 6.20887 28.573 6.30865C29.3654 6.4152 30.1144 6.65404 30.7206 7.26026C31.3269 7.86648 31.5657 8.61548 31.6723 9.40793C31.772 10.1501 31.772 11.0788 31.7719 12.1654L31.7719 12.4083C31.7719 13.3952 31.7886 13.6019 31.853 13.7755C31.8642 13.8058 31.8766 13.8357 31.8901 13.8651C31.9673 14.0334 32.1017 14.1913 32.7995 14.8892L32.8481 14.9377C33.5414 15.631 34.1342 16.2238 34.5535 16.7596C34.9992 17.3293 35.3464 17.9528 35.404 18.7222C35.4174 18.9008 35.4174 19.0801 35.404 19.2587C35.3464 20.0281 34.9992 20.6516 34.5535 21.2213C34.1342 21.7571 33.5414 22.3499 32.8481 23.0432L32.7995 23.0917C32.1017 23.7896 31.9673 23.9475 31.8901 24.1158C31.8766 24.1452 31.8642 24.1751 31.853 24.2054C31.7886 24.379 31.7719 24.5857 31.7719 25.5726L31.7719 25.8155C31.772 26.9021 31.772 27.8308 31.6723 28.573C31.5657 29.3654 31.3269 30.1144 30.7206 30.7206C30.1144 31.3269 29.3654 31.5657 28.573 31.6723C27.8308 31.772 26.9021 31.772 25.8155 31.7719L25.5726 31.7719C24.5857 31.7719 24.379 31.7886 24.2054 31.853C24.1751 31.8642 24.1452 31.8766 24.1158 31.8901C23.9475 31.9673 23.7896 32.1017 23.0917 32.7995L23.0432 32.8481C22.3499 33.5414 21.7571 34.1342 21.2213 34.5535C20.6516 34.9992 20.0281 35.3464 19.2587 35.404ZM18.8935 33.1188C18.958 33.1236 19.0229 33.1236 19.0874 33.1188C19.2221 33.1087 19.4181 33.0546 19.8092 32.7486C20.2217 32.4258 20.7159 31.9344 21.4713 31.1791C21.5068 31.1436 21.5419 31.1084 21.5767 31.0735C22.1099 30.539 22.5695 30.0781 23.1602 29.8072C23.2416 29.7698 23.3243 29.7356 23.4082 29.7044C24.0175 29.4784 24.6684 29.4792 25.4234 29.4801C25.4727 29.4802 25.5224 29.4803 25.5726 29.4803H25.7391C26.9234 29.4803 27.6963 29.4778 28.2676 29.401C28.8059 29.3286 28.9907 29.2096 29.1002 29.1002C29.2096 28.9907 29.3286 28.8059 29.401 28.2676C29.4778 27.6963 29.4803 26.9234 29.4803 25.7391V25.5726C29.4803 25.5224 29.4802 25.4727 29.4801 25.4234C29.4792 24.6684 29.4784 24.0175 29.7044 23.4082C29.7356 23.3243 29.7698 23.2416 29.8072 23.1602C30.0781 22.5695 30.539 22.1099 31.0735 21.5767C31.1084 21.5419 31.1436 21.5068 31.1791 21.4713C31.9344 20.7159 32.4258 20.2217 32.7486 19.8092C33.0546 19.4181 33.1087 19.2221 33.1188 19.0874C33.1236 19.0229 33.1236 18.958 33.1188 18.8935C33.1087 18.7588 33.0546 18.5628 32.7486 18.1717C32.4258 17.7592 31.9344 17.265 31.1791 16.5096C31.1436 16.4741 31.1084 16.439 31.0735 16.4042C30.539 15.871 30.0781 15.4114 29.8072 14.8207C29.7698 14.7393 29.7356 14.6566 29.7044 14.5727C29.4784 13.9634 29.4792 13.3125 29.4801 12.5575C29.4802 12.5082 29.4803 12.4585 29.4803 12.4083V12.2418C29.4803 11.0575 29.4778 10.2846 29.401 9.71329C29.3286 9.17496 29.2096 8.99017 29.1002 8.88071C28.9907 8.77126 28.806 8.65226 28.2676 8.57988C27.6963 8.50307 26.9234 8.50064 25.7391 8.50064H25.5726C25.5224 8.50064 25.4727 8.50071 25.4234 8.50077C24.6684 8.50172 24.0175 8.50253 23.4082 8.27646C23.3243 8.24533 23.2416 8.21107 23.1602 8.17374C22.5695 7.90277 22.1099 7.44194 21.5767 6.90739C21.5419 6.87251 21.5068 6.83731 21.4713 6.80184C20.7159 6.04649 20.2217 5.55507 19.8092 5.23233C19.4181 4.92633 19.2221 4.87223 19.0874 4.86214C19.0229 4.8573 18.958 4.8573 18.8935 4.86214C18.7588 4.87223 18.5628 4.92633 18.1717 5.23232C17.7592 5.55506 17.265 6.04648 16.5096 6.80183C16.4741 6.83731 16.439 6.87251 16.4042 6.90739C15.871 7.44193 15.4114 7.90277 14.8207 8.17374C14.7393 8.21106 14.6566 8.24533 14.5727 8.27646C13.9634 8.50253 13.3125 8.50172 12.5575 8.50077C12.5082 8.50071 12.4585 8.50064 12.4083 8.50064H12.2418C11.0575 8.50064 10.2846 8.50307 9.71329 8.57988C9.17495 8.65226 8.99017 8.77126 8.88071 8.88071C8.77126 8.99017 8.65226 9.17495 8.57988 9.71329C8.50307 10.2846 8.50064 11.0575 8.50064 12.2418V12.4083C8.50064 12.4585 8.50071 12.5082 8.50077 12.5575C8.50172 13.3125 8.50253 13.9634 8.27646 14.5727C8.24533 14.6566 8.21106 14.7393 8.17374 14.8207C7.90277 15.4114 7.44194 15.871 6.90739 16.4042C6.87251 16.439 6.83731 16.4741 6.80184 16.5096C6.04649 17.265 5.55507 17.7592 5.23233 18.1717C4.92633 18.5628 4.87223 18.7588 4.86214 18.8935C4.8573 18.958 4.8573 19.0229 4.86214 19.0874C4.87223 19.2221 4.92633 19.4181 5.23232 19.8092C5.55506 20.2217 6.04648 20.7159 6.80183 21.4713C6.83731 21.5068 6.87251 21.5419 6.90739 21.5767C7.44194 22.1099 7.90277 22.5695 8.17374 23.1602C8.21107 23.2416 8.24533 23.3243 8.27646 23.4082C8.50253 24.0175 8.50172 24.6684 8.50077 25.4234C8.50071 25.4727 8.50064 25.5224 8.50064 25.5726V25.7391C8.50064 26.9234 8.50307 27.6963 8.57988 28.2676C8.65226 28.806 8.77126 28.9907 8.88071 29.1002C8.99017 29.2096 9.17496 29.3286 9.71329 29.401C10.2846 29.4778 11.0575 29.4803 12.2418 29.4803H12.4083C12.4585 29.4803 12.5082 29.4802 12.5575 29.4801C13.3125 29.4792 13.9634 29.4784 14.5727 29.7044C14.6566 29.7356 14.7393 29.7698 14.8207 29.8072C15.4114 30.0781 15.871 30.539 16.4042 31.0735C16.439 31.1084 16.4741 31.1436 16.5096 31.1791C17.265 31.9344 17.7592 32.4258 18.1717 32.7486C18.5628 33.0546 18.7588 33.1087 18.8935 33.1188Z" fill="url(#paint0_linear_1_993)"/>
<path id="Vector 3082 (Stroke)" fill-rule="evenodd" clip-rule="evenodd" d="M13.5882 24.3753C13.1407 23.9279 13.1407 23.2024 13.5882 22.7549L22.7549 13.5882C23.2024 13.1407 23.9279 13.1407 24.3753 13.5882C24.8228 14.0357 24.8228 14.7612 24.3753 15.2087L15.2087 24.3753C14.7612 24.8228 14.0357 24.8228 13.5882 24.3753Z" fill="url(#paint1_linear_1_993)"/>
<path id="Vector (Stroke)_2" fill-rule="evenodd" clip-rule="evenodd" d="M12.875 14.4028C12.875 13.559 13.559 12.875 14.4028 12.875H14.4192C15.263 12.875 15.947 13.559 15.947 14.4028C15.947 15.2465 15.263 15.9306 14.4192 15.9306H14.4028C13.559 15.9306 12.875 15.2465 12.875 14.4028ZM22.0252 23.5694C22.0252 22.7257 22.7092 22.0417 23.553 22.0417H23.5694C24.4132 22.0417 25.0972 22.7257 25.0972 23.5694C25.0972 24.4132 24.4132 25.0972 23.5694 25.0972H23.553C22.7092 25.0972 22.0252 24.4132 22.0252 23.5694Z" fill="url(#paint2_linear_1_993)"/>
</g>
</g>
<defs>
<linearGradient id="paint0_linear_1_993" x1="18.9905" y1="35.4141" x2="18.9905" y2="2.56684" gradientUnits="userSpaceOnUse">
<stop stop-color="#C1842D"/>
<stop offset="1" stop-color="#ECC974"/>
</linearGradient>
<linearGradient id="paint1_linear_1_993" x1="18.9818" y1="24.7109" x2="18.9818" y2="13.2526" gradientUnits="userSpaceOnUse">
<stop stop-color="#C1842D"/>
<stop offset="1" stop-color="#ECC974"/>
</linearGradient>
<linearGradient id="paint2_linear_1_993" x1="18.9861" y1="12.875" x2="18.9861" y2="25.0972" gradientUnits="userSpaceOnUse">
<stop stop-color="#C1842D"/>
<stop offset="1" stop-color="#ECC974"/>
</linearGradient>
</defs>
</svg>
