<svg width="16" height="14" viewBox="0 0 16 14" fill="none" xmlns="http://www.w3.org/2000/svg">
<g id="elements">
<path id="Vector 7163" d="M1.33331 3L5.942 5.61131C7.64104 6.57401 8.35892 6.57401 10.058 5.61131L14.6666 3" stroke="white" stroke-linejoin="round"/>
<path id="Vector" d="M1.34382 7.98391C1.38741 10.0276 1.4092 11.0494 2.16328 11.8064C2.91737 12.5634 3.96687 12.5897 6.06587 12.6425C7.35952 12.675 8.64044 12.675 9.9341 12.6425C12.0331 12.5897 13.0826 12.5634 13.8367 11.8064C14.5908 11.0494 14.6126 10.0276 14.6561 7.98391C14.6702 7.32679 14.6702 6.67355 14.6561 6.01643C14.6126 3.97274 14.5908 2.95089 13.8367 2.19394C13.0826 1.43698 12.0331 1.41061 9.9341 1.35788C8.64044 1.32537 7.35952 1.32537 6.06586 1.35787C3.96687 1.41061 2.91737 1.43697 2.16328 2.19393C1.4092 2.95088 1.3874 3.97273 1.34382 6.01642C1.32981 6.67354 1.32981 7.32679 1.34382 7.98391Z" stroke="white" stroke-linejoin="round"/>
</g>
</svg>
