<svg width="24" height="24" viewBox="0 0 24 24" fill="none" xmlns="http://www.w3.org/2000/svg">
<g id="Frame" clip-path="url(#clip0_1_1012)">
<g id="Group">
<path id="Vector" d="M19 0H5C2.24294 0 0 2.24294 0 5V19C0 21.7571 2.24294 24 5 24H19C21.7571 24 24 21.7571 24 19V5C24 2.24294 21.7571 0 19 0ZM10 22V16H8V14H10V9C10 7.34544 11.3454 6 13 6H16V8H12V14H15.719L15.219 16H12V22H10ZM22 19C22 20.6546 20.6546 22 19 22H14V18H16.781L18.281 12H14V10H18V4H13C10.2429 4 8 6.24294 8 9V12H6V18H8V22H5C3.34544 22 2 20.6546 2 19V5C2 3.34544 3.34544 2 5 2H19C20.6546 2 22 3.34544 22 5V19Z" fill="#FAF8F2"/>
</g>
</g>
<defs>
<clipPath id="clip0_1_1012">
<rect width="24" height="24" fill="white"/>
</clipPath>
</defs>
</svg>
