<svg width="24" height="24" viewBox="0 0 24 24" fill="none" xmlns="http://www.w3.org/2000/svg">
<g id="Icon-dashboard">
<g id="elements">
<g id="Union">
<path fill-rule="evenodd" clip-rule="evenodd" d="M2.5 2.53125C2.5 2.25511 2.72386 2.03125 3 2.03125H3.88906C4.98792 2.03125 5.94578 2.77912 6.21229 3.84518L6.2146 3.8544L8.61631 15.2937H15.0841C16.0962 15.2937 16.8573 15.1346 17.4447 14.862C18.0263 14.5921 18.4631 14.1993 18.8128 13.6888C19.535 12.6348 19.8783 11.1044 20.276 9.1289C20.3919 8.55331 20.4681 8.16988 20.4878 7.88248C20.507 7.60388 20.4644 7.51063 20.429 7.46193C20.4038 7.42726 20.3667 7.39078 20.2452 7.35873C20.1039 7.32148 19.8957 7.30293 19.5623 7.29679C19.2862 7.29171 19.0665 7.06377 19.0716 6.78767C19.0767 6.51158 19.3047 6.29188 19.5808 6.29696C19.9178 6.30317 20.2323 6.32112 20.5002 6.39181C20.788 6.46771 21.0465 6.61062 21.238 6.87406C21.4746 7.19963 21.5114 7.5744 21.4855 7.95114C21.4607 8.31156 21.3705 8.75958 21.2631 9.29278L21.2564 9.32626C20.8699 11.2462 20.4978 12.9988 19.6378 14.254C19.1964 14.8982 18.6254 15.4165 17.8656 15.7691C17.1116 16.119 16.1976 16.2937 15.0841 16.2937H9.09739C9.07886 16.2958 9.06001 16.2969 9.04092 16.2969H8.65115C7.68359 16.2969 6.86142 17.0959 6.8146 18.139H17.2072C17.2221 18.139 17.2369 18.1396 17.2515 18.1409C18.297 18.1588 19.139 19.0119 19.139 20.0617C19.139 21.1226 18.2789 21.9827 17.2179 21.9827C16.157 21.9827 15.2969 21.1226 15.2969 20.0617C15.2969 19.7273 15.3823 19.4128 15.5326 19.139H12.2627C12.4129 19.4128 12.4984 19.7273 12.4984 20.0617C12.4984 21.1226 11.6383 21.9827 10.5773 21.9827C9.51633 21.9827 8.65625 21.1226 8.65625 20.0617C8.65625 19.7273 8.74169 19.4128 8.89194 19.139H6.70227C6.19182 19.139 5.8125 18.7139 5.8125 18.233C5.8125 16.9935 6.56173 15.9146 7.63563 15.4896L5.23999 4.07919C5.08181 3.46284 4.52612 3.03125 3.88906 3.03125H3C2.72386 3.03125 2.5 2.80739 2.5 2.53125ZM10.5773 19.1406C10.0686 19.1406 9.65625 19.553 9.65625 20.0617C9.65625 20.5704 10.0686 20.9827 10.5773 20.9827C11.086 20.9827 11.4984 20.5704 11.4984 20.0617C11.4984 19.553 11.086 19.1406 10.5773 19.1406ZM16.2969 20.0617C16.2969 19.553 16.7092 19.1406 17.2179 19.1406C17.7266 19.1406 18.139 19.553 18.139 20.0617C18.139 20.5704 17.7266 20.9827 17.2179 20.9827C16.7092 20.9827 16.2969 20.5704 16.2969 20.0617Z" fill="#1F1F1F"/>
<path d="M13.4457 3C13.4457 2.72386 13.2219 2.5 12.9457 2.5C12.6696 2.5 12.4457 2.72386 12.4457 3V6.28947H9.15625C8.88011 6.28947 8.65625 6.51333 8.65625 6.78947C8.65625 7.06562 8.88011 7.28947 9.15625 7.28947H12.4457V10.5789C12.4457 10.8551 12.6696 11.0789 12.9457 11.0789C13.2219 11.0789 13.4457 10.8551 13.4457 10.5789V7.28947H16.7352C17.0113 7.28947 17.2352 7.06562 17.2352 6.78947C17.2352 6.51333 17.0113 6.28947 16.7352 6.28947H13.4457V3Z" fill="#1F1F1F"/>
</g>
</g>
</g>
</svg>
