<svg width="24" height="24" viewBox="0 0 24 24" fill="none" xmlns="http://www.w3.org/2000/svg">
<g clip-path="url(#clip0_1_1007)">
<path d="M18 0H6C2.64 0 0 2.64 0 6V18C0 21.36 2.64 24 6 24H18C21.36 24 24 21.36 24 18V6C24 2.64 21.36 0 18 0ZM21.6 18C21.6 20.04 20.04 21.6 18 21.6H6C3.96 21.6 2.4 20.04 2.4 18V6C2.4 3.96 3.96 2.4 6 2.4H18C20.04 2.4 21.6 3.96 21.6 6V18Z" fill="#FAF8F2"/>
<path d="M12 6C8.64 6 6 8.64 6 12C6 15.36 8.64 18 12 18C15.36 18 18 15.36 18 12C18 8.64 15.36 6 12 6ZM12 15.6C9.96 15.6 8.4 14.04 8.4 12C8.4 9.96 9.96 8.4 12 8.4C14.04 8.4 15.6 9.96 15.6 12C15.6 14.04 14.04 15.6 12 15.6Z" fill="#FAF8F2"/>
<path d="M17.9969 7.19688C18.6596 7.19688 19.1969 6.65962 19.1969 5.99688C19.1969 5.33413 18.6596 4.79688 17.9969 4.79688C17.3341 4.79688 16.7969 5.33413 16.7969 5.99688C16.7969 6.65962 17.3341 7.19688 17.9969 7.19688Z" fill="#FAF8F2"/>
</g>
<defs>
<clipPath id="clip0_1_1007">
<rect width="24" height="24" fill="white"/>
</clipPath>
</defs>
</svg>
