<svg width="38" height="38" viewBox="0 0 38 38" fill="none" xmlns="http://www.w3.org/2000/svg">
<g id="payment-success-02">
<g id="elements">
<path id="Vector (Stroke)" fill-rule="evenodd" clip-rule="evenodd" d="M26.7309 6.23514C23.9059 6.23514 21.3696 6.79333 19.4851 7.67349C17.2457 8.71941 14.365 9.32991 11.2571 9.32991C9.52423 9.32991 7.86749 9.14026 6.35579 8.79401C5.43742 8.58366 4.68066 9.27034 4.68066 9.89312V26.5616C4.68066 27.8653 4.70359 28.1836 4.8684 28.5299C4.96337 28.7295 5.24138 29.0783 5.41468 29.2155L4.69457 30.1256L5.41469 29.2155C5.72881 29.464 5.93228 29.5266 6.874 29.7423C8.20853 30.048 9.69109 30.2196 11.2571 30.2196C13.4172 30.2196 15.4146 29.8931 17.0823 29.3417C17.6908 29.1405 18.3473 29.4707 18.5485 30.0792C18.7497 30.6878 18.4195 31.3442 17.8109 31.5454C15.8881 32.1812 13.6427 32.5407 11.2571 32.5407C9.52423 32.5407 7.86749 32.351 6.35579 32.0048C6.32548 31.9979 6.29538 31.991 6.26547 31.9842C5.41923 31.7908 4.72983 31.6334 3.97445 31.0357C3.52254 30.6781 3.02025 30.0477 2.77259 29.5274L3.81367 29.0319L2.77259 29.5274C2.3576 28.6555 2.35844 27.7929 2.35948 26.7249C2.35953 26.671 2.35958 26.6166 2.35958 26.5616V9.89312C2.35958 7.46807 4.82148 6.0614 6.874 6.53152C8.20853 6.83719 9.6911 7.00883 11.2571 7.00883C14.082 7.00883 16.6184 6.45064 18.5029 5.57048C20.7423 4.52457 23.623 3.91406 26.7309 3.91406C28.4637 3.91406 30.1205 4.10372 31.6322 4.44997C31.6625 4.45691 31.6926 4.46378 31.7225 4.47061C32.5687 4.66392 33.2581 4.8214 34.0135 5.41911C34.4654 5.77668 34.9677 6.40702 35.2154 6.92735C35.6304 7.79927 35.6295 8.66184 35.6285 9.72984C35.6284 9.78373 35.6284 9.83815 35.6284 9.89312V18.2274C35.6284 18.8683 35.1088 19.3879 34.4679 19.3879C33.8269 19.3879 33.3073 18.8683 33.3073 18.2274V9.89312C33.3073 8.58947 33.2844 8.27113 33.1196 7.92487C33.0246 7.72532 32.7466 7.37643 32.5733 7.2393C32.2592 6.99075 32.0557 6.92815 31.114 6.71246C29.7794 6.40679 28.2969 6.23514 26.7309 6.23514Z" fill="url(#paint0_linear_1_942)"/>
<path id="Vector" d="M25.9622 34.2109C25.6527 34.2109 25.1885 33.9014 25.0338 33.592C24.1054 31.5804 23.1769 31.2709 23.1769 31.2709C22.558 31.2709 22.0938 30.8067 22.0938 30.3425C22.0938 29.7235 22.558 29.2593 23.1769 29.2593C23.4864 29.2593 24.7243 29.414 26.117 31.2709C27.6643 29.1045 31.0686 24.9266 34.1634 23.6887C34.7823 23.534 35.4013 23.8434 35.556 24.3076C35.7108 24.9266 35.4013 25.5456 34.9371 25.7003C31.8423 26.6287 28.1286 31.7351 26.8906 33.7467C26.7359 34.0562 26.4264 34.2109 25.9622 34.2109Z" fill="url(#paint1_linear_1_942)"/>
<path id="Ellipse 1574 (Stroke)" fill-rule="evenodd" clip-rule="evenodd" d="M19.0056 15.5086C17.51 15.5086 16.2976 16.721 16.2976 18.2165C16.2976 19.7121 17.51 20.9244 19.0056 20.9244C20.5011 20.9244 21.7135 19.7121 21.7135 18.2165C21.7135 16.721 20.5011 15.5086 19.0056 15.5086ZM13.9766 18.2165C13.9766 15.4391 16.2281 13.1875 19.0056 13.1875C21.783 13.1875 24.0346 15.4391 24.0346 18.2165C24.0346 20.9939 21.783 23.2455 19.0056 23.2455C16.2281 23.2455 13.9766 20.9939 13.9766 18.2165Z" fill="url(#paint2_linear_1_942)"/>
<path id="Vector (Stroke)_2" fill-rule="evenodd" clip-rule="evenodd" d="M8.93676 18.2187C9.79148 18.2187 10.4844 18.9116 10.4844 19.7664L10.4844 19.7803C10.4844 20.635 9.79148 21.3279 8.93676 21.3279C8.08203 21.3279 7.38914 20.635 7.38914 19.7803L7.38914 19.7664C7.38914 18.9116 8.08203 18.2187 8.93676 18.2187Z" fill="url(#paint3_linear_1_942)"/>
<path id="Vector (Stroke)_3" fill-rule="evenodd" clip-rule="evenodd" d="M29.0774 15.1094C29.9321 15.1094 30.625 15.8023 30.625 16.657L30.625 16.6709C30.625 17.5256 29.9321 18.2185 29.0774 18.2185C28.2227 18.2185 27.5298 17.5256 27.5298 16.6709L27.5298 16.657C27.5298 15.8023 28.2227 15.1094 29.0774 15.1094Z" fill="url(#paint4_linear_1_942)"/>
</g>
</g>
<defs>
<linearGradient id="paint0_linear_1_942" x1="18.994" y1="3.91406" x2="18.994" y2="32.5407" gradientUnits="userSpaceOnUse">
<stop stop-color="#C1842D"/>
<stop offset="1" stop-color="#ECC974"/>
</linearGradient>
<linearGradient id="paint1_linear_1_942" x1="28.845" y1="23.6484" x2="28.845" y2="34.2109" gradientUnits="userSpaceOnUse">
<stop stop-color="#C1842D"/>
<stop offset="1" stop-color="#ECC974"/>
</linearGradient>
<linearGradient id="paint2_linear_1_942" x1="19.0056" y1="13.1875" x2="19.0056" y2="23.2455" gradientUnits="userSpaceOnUse">
<stop stop-color="#C1842D"/>
<stop offset="1" stop-color="#ECC974"/>
</linearGradient>
<linearGradient id="paint3_linear_1_942" x1="10.4844" y1="19.7733" x2="7.38914" y2="19.7733" gradientUnits="userSpaceOnUse">
<stop stop-color="#C1842D"/>
<stop offset="1" stop-color="#ECC974"/>
</linearGradient>
<linearGradient id="paint4_linear_1_942" x1="30.625" y1="16.6639" x2="27.5298" y2="16.6639" gradientUnits="userSpaceOnUse">
<stop stop-color="#C1842D"/>
<stop offset="1" stop-color="#ECC974"/>
</linearGradient>
</defs>
</svg>
