<svg width="25" height="24" viewBox="0 0 25 24" fill="none" xmlns="http://www.w3.org/2000/svg">
<g id="star-stroke-rizz 1">
<path id="Vector" d="M19.7628 14.9866L22.2719 12.4557C22.9374 11.7902 23.3628 11.0048 23.3628 10.2084C23.3628 9.99018 23.3301 9.77202 23.2646 9.55382C22.9373 8.5393 21.9446 7.9611 20.7773 7.76474L17.5483 7.21925C17.4283 7.19746 17.2537 7.13197 17.0573 6.99018C16.8719 6.84838 16.7519 6.69561 16.6973 6.58653L14.9191 2.99746C14.3846 1.90654 13.5336 1.08838 12.4537 1.08838C11.3737 1.08838 10.5228 1.90658 9.97734 2.99746L8.19913 6.58653C8.14462 6.69561 8.02457 6.84833 7.82826 6.99018C7.64277 7.13197 7.46826 7.20838 7.35918 7.21925L4.13006 7.76474C2.96277 7.9611 1.97006 8.53925 1.64277 9.55382C1.32641 10.5683 1.79549 11.6157 2.63549 12.4557L5.14462 14.9866C5.2319 15.0739 5.34098 15.2593 5.41734 15.4993C5.48282 15.7393 5.48282 15.9575 5.46098 16.0884L4.74098 19.2193C4.64282 19.6339 4.58826 20.0484 4.58826 20.4411C4.58826 21.292 4.83918 22.0447 5.4719 22.5138C6.42102 23.212 7.69738 22.9065 8.84277 22.2193L11.8537 20.4193C11.9846 20.3429 12.2028 20.2883 12.4537 20.2883C12.7046 20.2883 12.9228 20.3428 13.0428 20.4193L16.0646 22.2193C17.2101 22.9065 18.4865 23.212 19.4355 22.5247C20.3737 21.8375 20.461 20.5175 20.1664 19.2193L19.4464 16.0883C19.4464 16.0883 19.4246 15.9793 19.4246 15.9138C19.4246 15.7938 19.4464 15.6519 19.4901 15.4992C19.5555 15.2592 19.6646 15.0737 19.7628 14.9865L19.7628 14.9866ZM17.8865 16.4375L18.5955 19.5356V19.5683C18.8792 20.7465 18.6065 21.1501 18.4865 21.2375C18.3774 21.3138 17.9083 21.4556 16.8828 20.8447L13.861 19.0447C13.4355 18.7938 12.9228 18.6847 12.4537 18.6847C11.9846 18.6847 11.4719 18.7938 11.0464 19.0447L8.0137 20.8447C6.99918 21.4557 6.54098 21.3138 6.42098 21.2375C6.30098 21.1393 6.02826 20.7357 6.29006 19.5683L7.01006 16.4483C7.11913 15.9793 7.06457 15.4883 6.94457 15.0629C6.82457 14.6375 6.60642 14.1902 6.27909 13.8629L3.76996 11.332C3.12632 10.6883 3.10448 10.2301 3.16996 10.0338C3.22448 9.83741 3.50817 9.48829 4.39181 9.33561L7.62093 8.80105C8.04641 8.72469 8.46093 8.51741 8.78821 8.26649C9.11549 8.01557 9.44277 7.68833 9.62821 7.29557L11.4282 3.66285C11.8428 2.83372 12.2573 2.69197 12.4536 2.69197C12.6391 2.69197 13.0646 2.84469 13.49 3.70649L15.2682 7.29557C15.4537 7.68828 15.7809 8.02649 16.1082 8.26649C16.4355 8.51736 16.85 8.72464 17.2864 8.80105L20.5046 9.33561C21.3991 9.48833 21.6828 9.83746 21.7373 10.0338C21.7482 10.0774 21.7591 10.132 21.7591 10.2083C21.7591 10.4483 21.6391 10.8302 21.1373 11.332L18.6283 13.8629C18.301 14.1902 18.0719 14.6375 17.9519 15.0629C17.8319 15.4883 17.7883 15.9793 17.8864 16.4375H17.8865Z" fill="url(#paint0_linear_1_723)"/>
</g>
<defs>
<linearGradient id="paint0_linear_1_723" x1="12.4531" y1="1.08838" x2="12.4531" y2="22.9121" gradientUnits="userSpaceOnUse">
<stop stop-color="#C1842D"/>
<stop offset="1" stop-color="#ECC974"/>
</linearGradient>
</defs>
</svg>
