<svg width="25" height="24" viewBox="0 0 25 24" fill="none" xmlns="http://www.w3.org/2000/svg">
<g id="star-stroke-rizz 6">
<path id="Union" d="M22.2753 12.4552L19.7662 14.9861C19.668 15.0733 19.5589 15.2587 19.4934 15.4987C19.4498 15.6514 19.4279 15.7933 19.4279 15.9133C19.4279 15.9788 19.4498 16.0878 19.4498 16.0878L20.1698 19.2188C20.4644 20.517 20.3771 21.837 19.4389 22.5243C18.4898 23.2115 17.2135 22.906 16.068 22.2188L13.0461 20.4188C12.9261 20.3424 12.708 20.2878 12.4571 20.2878C12.2061 20.2878 11.9879 20.3424 11.8571 20.4188L8.84613 22.2188C7.70074 22.906 6.42438 23.2115 5.47526 22.5133C4.84254 22.0443 4.59162 21.2915 4.59162 20.4406C4.59162 20.0479 4.64618 19.6334 4.74433 19.2188L5.46433 16.0879C5.48618 15.957 5.48618 15.7388 5.42069 15.4988C5.34433 15.2588 5.23526 15.0734 5.14798 14.9861L2.63885 12.4552C1.79885 11.6152 1.32977 10.5678 1.64613 9.55333C1.97341 8.53877 2.96613 7.96061 4.13341 7.76425L7.36254 7.21877C7.47162 7.20789 7.64613 7.13148 7.83162 6.98969C8.02793 6.84784 8.14798 6.69512 8.20249 6.58605L9.98069 2.99697C10.5261 1.90609 11.3771 1.08789 12.4571 1.08789C13.537 1.08789 14.3879 1.90605 14.9225 2.99697L16.7007 6.58605C16.7552 6.69512 16.8752 6.84789 17.0607 6.98969C17.2571 7.13148 17.4316 7.19697 17.5516 7.21877L20.7807 7.76425C21.948 7.96061 22.9407 8.53881 23.268 9.55333C23.3334 9.77153 23.3661 9.98969 23.3661 10.2079C23.3661 11.0043 22.9407 11.7897 22.2753 12.4552Z" fill="url(#paint0_linear_1_715)"/>
</g>
<defs>
<linearGradient id="paint0_linear_1_715" x1="12.4565" y1="1.08789" x2="12.4565" y2="22.9116" gradientUnits="userSpaceOnUse">
<stop stop-color="#C1842D"/>
<stop offset="1" stop-color="#ECC974"/>
</linearGradient>
</defs>
</svg>
