<svg width="38" height="38" viewBox="0 0 38 38" fill="none" xmlns="http://www.w3.org/2000/svg">
<g id="truck-delivery">
<g id="elements">
<path id="Ellipse 1647 (Stroke)" fill-rule="evenodd" clip-rule="evenodd" d="M26.6233 26.2682C25.5686 26.2682 24.7135 27.1232 24.7135 28.178C24.7135 29.2327 25.5686 30.0877 26.6233 30.0877C27.678 30.0877 28.533 29.2327 28.533 28.178C28.533 27.1232 27.678 26.2682 26.6233 26.2682ZM22.4219 28.178C22.4219 25.8576 24.3029 23.9766 26.6233 23.9766C28.9436 23.9766 30.8247 25.8576 30.8247 28.178C30.8247 30.4983 28.9436 32.3793 26.6233 32.3793C24.3029 32.3793 22.4219 30.4983 22.4219 28.178Z" fill="url(#paint0_linear_1_975)"/>
<path id="Ellipse 1648 (Stroke)" fill-rule="evenodd" clip-rule="evenodd" d="M11.3498 26.2682C10.2951 26.2682 9.4401 27.1232 9.4401 28.178C9.4401 29.2327 10.2951 30.0877 11.3498 30.0877C12.4045 30.0877 13.2595 29.2327 13.2595 28.178C13.2595 27.1232 12.4045 26.2682 11.3498 26.2682ZM7.14844 28.178C7.14844 25.8576 9.02946 23.9766 11.3498 23.9766C13.6702 23.9766 15.5512 25.8576 15.5512 28.178C15.5512 30.4983 13.6702 32.3793 11.3498 32.3793C9.02946 32.3793 7.14844 30.4983 7.14844 28.178Z" fill="url(#paint1_linear_1_975)"/>
<path id="Vector 5060 (Stroke)" fill-rule="evenodd" clip-rule="evenodd" d="M19.2845 8.10064C18.8102 7.94654 18.1842 7.9324 16.3889 7.9324H3.70833C3.07551 7.9324 2.5625 7.41939 2.5625 6.78657C2.5625 6.15374 3.07551 5.64073 3.70833 5.64073H16.3889C16.4607 5.64073 16.5315 5.64071 16.6013 5.64068C18.1015 5.64009 19.1264 5.63968 19.9926 5.92114C21.7368 6.48786 23.1043 7.85531 23.671 9.59949C23.9524 10.4657 23.952 11.4906 23.9514 12.9909C23.9514 13.0606 23.9514 13.1314 23.9514 13.2032C23.9514 14.4299 23.9655 14.7714 24.0449 15.0156C24.2338 15.597 24.6896 16.0528 25.271 16.2417C25.5151 16.321 25.8567 16.3352 27.0833 16.3352H34.2639C34.8967 16.3352 35.4097 16.8482 35.4097 17.481V20.6185C35.4098 22.3493 35.4098 23.7636 35.2597 24.8802C35.1027 26.0474 34.7631 27.0593 33.9554 27.867C32.8847 28.9377 31.4455 29.1926 29.7376 29.2778C29.1056 29.3093 28.5677 28.8225 28.5362 28.1904C28.5046 27.5584 28.9915 27.0205 29.6235 26.989C31.2667 26.907 31.9181 26.6634 32.335 26.2465C32.6459 25.9356 32.8657 25.4879 32.9884 24.5749C33.1156 23.6289 33.1181 22.3695 33.1181 20.5366V18.6268H27.0833C27.0228 18.6268 26.9631 18.6269 26.9042 18.6269C25.9435 18.6277 25.2001 18.6283 24.5628 18.4212C23.2837 18.0056 22.2809 17.0028 21.8654 15.7238C21.6583 15.0865 21.6589 14.3431 21.6596 13.3824C21.6597 13.3235 21.6597 13.2638 21.6597 13.2032C21.6597 11.4079 21.6456 10.7819 21.4915 10.3077C21.1514 9.26115 20.331 8.44067 19.2845 8.10064ZM3.69338 22.4477C4.32542 22.4162 4.86333 22.903 4.89484 23.5351C4.97674 25.1782 5.22035 25.8296 5.63725 26.2465C6.05415 26.6634 6.70554 26.907 8.34871 26.989C8.98075 27.0205 9.46758 27.5584 9.43608 28.1904C9.40457 28.8225 8.86666 29.3093 8.23462 29.2778C6.52669 29.1926 5.08755 28.9377 4.0168 27.867C2.94604 26.7962 2.69115 25.3571 2.60601 23.6492C2.57451 23.0171 3.06134 22.4792 3.69338 22.4477ZM13.2569 28.1755C13.2569 27.5426 13.77 27.0296 14.4028 27.0296H23.5694C24.2023 27.0296 24.7153 27.5426 24.7153 28.1755C24.7153 28.8083 24.2023 29.3213 23.5694 29.3213H14.4028C13.77 29.3213 13.2569 28.8083 13.2569 28.1755Z" fill="url(#paint2_linear_1_975)"/>
<path id="Vector 5026 (Stroke)" fill-rule="evenodd" clip-rule="evenodd" d="M2.5625 12.8958C2.5625 12.263 3.07551 11.75 3.70833 11.75H12.875C13.5078 11.75 14.0208 12.263 14.0208 12.8958C14.0208 13.5287 13.5078 14.0417 12.875 14.0417H3.70833C3.07551 14.0417 2.5625 13.5287 2.5625 12.8958Z" fill="url(#paint3_linear_1_975)"/>
<path id="Vector 5027 (Stroke)" fill-rule="evenodd" clip-rule="evenodd" d="M2.5625 17.474C2.5625 16.8411 3.07551 16.3281 3.70833 16.3281H9.81944C10.4523 16.3281 10.9653 16.8411 10.9653 17.474C10.9653 18.1068 10.4523 18.6198 9.81944 18.6198H3.70833C3.07551 18.6198 2.5625 18.1068 2.5625 17.474Z" fill="url(#paint4_linear_1_975)"/>
<path id="Vector 5061 (Stroke)" fill-rule="evenodd" clip-rule="evenodd" d="M28.0917 11.0565C27.4935 10.9961 26.7269 10.9948 25.5923 10.9948H22.8099C22.1771 10.9948 21.6641 10.4818 21.6641 9.84896C21.6641 9.21613 22.1771 8.70313 22.8099 8.70313L25.6491 8.70313C26.7125 8.7031 27.5951 8.70308 28.3219 8.77647C29.0873 8.85377 29.7728 9.01919 30.4198 9.40563C31.0668 9.79208 31.5374 10.3172 31.9683 10.9545C32.3775 11.5596 32.7959 12.3367 33.3001 13.273L35.2771 16.9446C35.5771 17.5018 35.3687 18.1967 34.8115 18.4967C34.2543 18.7967 33.5594 18.5883 33.2594 18.0311L31.3093 14.4095C30.7713 13.4105 30.4068 12.7362 30.07 12.2382C29.7477 11.7615 29.5024 11.527 29.2446 11.3731C28.9869 11.2191 28.6641 11.1143 28.0917 11.0565Z" fill="url(#paint5_linear_1_975)"/>
</g>
</g>
<defs>
<linearGradient id="paint0_linear_1_975" x1="26.6233" y1="23.9766" x2="26.6233" y2="32.3793" gradientUnits="userSpaceOnUse">
<stop stop-color="#C1842D"/>
<stop offset="1" stop-color="#ECC974"/>
</linearGradient>
<linearGradient id="paint1_linear_1_975" x1="11.3498" y1="23.9766" x2="11.3498" y2="32.3793" gradientUnits="userSpaceOnUse">
<stop stop-color="#C1842D"/>
<stop offset="1" stop-color="#ECC974"/>
</linearGradient>
<linearGradient id="paint2_linear_1_975" x1="18.9861" y1="5.64062" x2="18.9861" y2="29.3213" gradientUnits="userSpaceOnUse">
<stop stop-color="#C1842D"/>
<stop offset="1" stop-color="#ECC974"/>
</linearGradient>
<linearGradient id="paint3_linear_1_975" x1="8.29167" y1="11.75" x2="8.29167" y2="14.0417" gradientUnits="userSpaceOnUse">
<stop stop-color="#C1842D"/>
<stop offset="1" stop-color="#ECC974"/>
</linearGradient>
<linearGradient id="paint4_linear_1_975" x1="6.76389" y1="16.3281" x2="6.76389" y2="18.6198" gradientUnits="userSpaceOnUse">
<stop stop-color="#C1842D"/>
<stop offset="1" stop-color="#ECC974"/>
</linearGradient>
<linearGradient id="paint5_linear_1_975" x1="28.5392" y1="8.70312" x2="28.5392" y2="18.6339" gradientUnits="userSpaceOnUse">
<stop stop-color="#C1842D"/>
<stop offset="1" stop-color="#ECC974"/>
</linearGradient>
</defs>
</svg>
